<?xml version="1.0" encoding="utf-8"?>
<!-- Generator: Adobe Illustrator 16.2.0, SVG Export Plug-In . SVG Version: 6.00 Build 0)  -->
<!DOCTYPE svg PUBLIC "-//W3C//DTD SVG 1.1//EN" "http://www.w3.org/Graphics/SVG/1.1/DTD/svg11.dtd">
<svg version="1.1" id="Layer_1" xmlns="http://www.w3.org/2000/svg" xmlns:xlink="http://www.w3.org/1999/xlink" x="0px" y="0px"
	 width="100px" height="100px" viewBox="0 0 100 100" enable-background="new 0 0 100 100" xml:space="preserve">
<path fill="#FFFFFF" d="M96.192,29.292c-2.484-5.897-5.924-10.959-10.322-15.182c-4.318-4.222-9.463-7.5-15.435-9.838
	c-5.972-2.337-12.41-3.505-19.309-3.505c-6.943,0-13.478,1.253-19.614,3.76c-6.132,2.508-11.438,5.965-15.917,10.376
	c-4.521,4.485-8.073,9.725-10.653,15.718c-2.583,5.994-3.874,12.459-3.874,19.395c0,7.312,1.242,14.024,3.723,20.13
	c2.481,6.107,5.94,11.345,10.38,15.718c4.398,4.334,9.656,7.699,15.769,10.094c6.113,2.394,12.742,3.591,19.884,3.591
	c4.235,0,8.06-0.19,11.47-0.566c3.408-0.377,6.95-0.963,10.621-1.751V85.186c-3.349,0.942-7.011,1.698-10.984,2.262
	c-3.977,0.566-7.657,0.846-11.049,0.846c-4.801,0-9.402-0.816-13.8-2.458c-4.398-1.641-8.253-4.061-11.561-7.265
	c-3.43-3.243-6.123-7.256-8.08-12.043c-1.959-4.788-2.938-10.255-2.938-16.398c0-5.768,1.04-11.027,3.118-15.776
	c2.079-4.749,4.833-8.745,8.263-11.987c3.591-3.354,7.516-5.88,11.773-7.577c4.257-1.696,8.765-2.543,13.527-2.543
	c5.045,0,9.736,0.763,14.073,2.289c4.337,1.527,8.121,3.874,11.352,7.04c3.186,3.129,5.669,7.011,7.445,11.647
	c1.775,4.637,2.661,10.047,2.661,16.228c0,3.509-0.374,6.955-1.12,10.349c-0.746,3.392-1.705,6.332-2.873,8.819h-9.08V22.931
	l-13.379,0.058v3.448c-1.087-1.017-2.642-2.016-4.658-2.996c-2.018-0.979-4.318-1.47-6.902-1.47c-3.227,0-6.326,0.698-9.289,2.091
	c-2.967,1.396-5.541,3.28-7.719,5.655c-2.301,2.602-4.138,5.692-5.508,9.273c-1.374,3.583-2.06,7.558-2.06,11.931
	c0,4.258,0.557,8.209,1.667,11.845c1.11,3.639,2.612,6.628,4.508,8.964c1.937,2.413,4.237,4.26,6.901,5.541
	c2.661,1.28,5.528,1.924,8.594,1.924c2.098,0,3.751-0.116,4.964-0.341c1.21-0.226,2.52-0.586,3.936-1.075
	c1.248-0.415,2.391-0.923,3.42-1.524c1.026-0.605,2.065-1.246,3.114-1.925l0.911,4.408h29.536c2.301-3.465,4.247-7.979,5.844-13.539
	c1.592-5.561,2.387-10.921,2.387-16.088C99.911,41.798,98.673,35.193,96.192,29.292z M55.214,67.122
	c-1.555,0.772-3.382,1.158-5.48,1.158c-3.996,0-6.869-1.441-8.626-4.324c-1.753-2.886-2.632-7.284-2.632-13.205
	c0-5.353,1.049-9.649,3.146-12.893c2.098-3.242,5.103-4.862,9.019-4.862c1.776,0,3.359,0.179,4.752,0.536
	c1.394,0.359,2.915,0.933,4.569,1.725v28.5C58.348,65.224,56.765,66.35,55.214,67.122z"/>
</svg>
