<?xml version="1.0" encoding="utf-8"?>
<!-- Generator: Adobe Illustrator 16.2.0, SVG Export Plug-In . SVG Version: 6.00 Build 0)  -->
<!DOCTYPE svg PUBLIC "-//W3C//DTD SVG 1.1//EN" "http://www.w3.org/Graphics/SVG/1.1/DTD/svg11.dtd">
<svg version="1.1" id="Layer_1" xmlns="http://www.w3.org/2000/svg" xmlns:xlink="http://www.w3.org/1999/xlink" x="0px" y="0px"
	 width="100px" height="100px" viewBox="0 0 100 100" enable-background="new 0 0 100 100" xml:space="preserve">
<path fill-rule="evenodd" clip-rule="evenodd" fill="#E20125" d="M4,50c0,25.364,20.635,46,46,46c25.364,0,46-20.636,46-46
	C96,24.635,75.364,4,50,4C24.635,4,4,24.635,4,50z M7.68,50C7.68,26.665,26.665,7.68,50,7.68c23.335,0,42.32,18.984,42.32,42.32
	c0,23.335-18.985,42.32-42.32,42.32C26.665,92.32,7.68,73.335,7.68,50z"/>
<path fill="#E20125" d="M54.532,34.591v-8.448h-9.129v8.448H54.532z M54.532,73.777V39.27h-9.129v34.507H54.532z"/>
</svg>
