<?xml version="1.0" encoding="utf-8"?>
<!-- Generator: Adobe Illustrator 16.2.0, SVG Export Plug-In . SVG Version: 6.00 Build 0)  -->
<!DOCTYPE svg PUBLIC "-//W3C//DTD SVG 1.1//EN" "http://www.w3.org/Graphics/SVG/1.1/DTD/svg11.dtd">
<svg version="1.1" id="Layer_1" xmlns="http://www.w3.org/2000/svg" xmlns:xlink="http://www.w3.org/1999/xlink" x="0px" y="0px"
	 width="60px" height="60px" viewBox="0 0 60 60" enable-background="new 0 0 60 60" xml:space="preserve">
<path fill-rule="evenodd" clip-rule="evenodd" fill="#00A4FF" d="M52.205,24.682h-4.818c0.369,1.364,0.444,3.14,0.444,4.614
	c0,9.412-7.966,17.04-17.793,17.04c-9.827,0-17.793-7.628-17.793-17.04c0-1.474,0.077-3.25,0.445-4.614h-4.82V48.68
	c0,1.176,1.662,1.846,2.892,1.846h39.517c1.231,0,1.927-0.67,1.927-1.846V24.682z M52.205,9.912c0-1.176-0.695-1.847-1.927-1.847
	H43.53c-1.226,0-1.926,0.671-1.926,1.847v6.462c0,1.174,0.7,1.845,1.926,1.845h6.748c1.231,0,1.927-0.67,1.927-1.845V9.912z
	 M30.038,18.643c-6.142,0-11.122,4.77-11.122,10.652c0,5.883,4.979,10.653,11.122,10.653s11.124-4.77,11.124-10.653
	C41.161,23.413,36.18,18.643,30.038,18.643 M52.281,56.985H7.794c-3.685,0-6.672-2.858-6.672-6.392V7.995
	c0-3.531,2.988-6.389,6.672-6.389h44.487c3.683,0,6.673,2.858,6.673,6.389v42.599C58.954,54.127,55.964,56.985,52.281,56.985"/>
</svg>
