<?xml version="1.0" encoding="utf-8"?>
<!-- Generator: Adobe Illustrator 16.2.0, SVG Export Plug-In . SVG Version: 6.00 Build 0)  -->
<!DOCTYPE svg PUBLIC "-//W3C//DTD SVG 1.1//EN" "http://www.w3.org/Graphics/SVG/1.1/DTD/svg11.dtd">
<svg version="1.1" id="Layer_1" xmlns="http://www.w3.org/2000/svg" xmlns:xlink="http://www.w3.org/1999/xlink" x="0px" y="0px"
	 width="100px" height="100px" viewBox="0 0 100 100" enable-background="new 0 0 100 100" xml:space="preserve">
<path fill="#00A4FF" d="M95.13,48.816c0-4.588-2.404-8.131-6.77-9.977c-2.9-1.226-5.709-1.284-6.019-1.287c-0.005,0-0.009,0-0.014,0
	L69.087,37.5c-0.264-0.012-0.618-0.093-0.819-0.18c-0.229-2.117,0.235-2.748,1.794-4.498c2.164-2.427,5.775-9.117,6.511-14.072
	c0.367-2.469,0.091-5.478-0.758-8.255c-0.553-1.807-1.854-5.097-4.372-6.836c-1.134-0.784-2.402-1.198-3.669-1.198
	c-3.455,0-6.133,3.036-6.727,5.971c-0.121,0.602-0.223,1.195-0.319,1.767c-0.531,3.099-1.029,6.026-4.861,10.843
	c-2.42,3.042-3.615,3.92-4.879,4.848c-1.284,0.943-2.741,2.012-4.958,4.793c-1.579,1.979-3.044,4.329-4.595,6.815
	c-1.853,2.967-3.768,6.038-5.885,8.448c-0.705,0.801-1.179,1.227-1.449,1.441h-6.096c-0.635-1.762-2.311-3.026-4.28-3.026H8.425
	c-2.512,0-4.555,2.054-4.555,4.578v39.021c0,2.524,2.043,4.577,4.555,4.577h15.299c1.975,0,3.654-1.272,4.286-3.04h2.879
	c0.564,0.508,1.202,1.061,1.617,1.358c0.528,0.379,2.439,1.62,4.764,1.62h42.258c0.099,0,0.196-0.005,0.295-0.014
	c0.12-0.011,0.253-0.019,0.396-0.029c1.049-0.07,2.803-0.19,4.504-1.034c1.574-0.781,3.586-2.431,4.225-5.848
	c0.354-1.898,0.153-3.491-0.344-4.789c1.488-1.161,2.762-2.903,3.183-5.42c0.406-2.439,0.036-4.414-0.703-5.966
	c1.684-1.399,2.965-3.549,3.339-6.529c0.346-2.746-0.236-5.206-1.649-7.115C94.047,54.283,95.13,52.09,95.13,48.816z M86.742,55.49
	c0,0,5.176,1.005,4.429,6.949c-0.683,5.431-4.93,5.689-5.738,5.689c-0.086,0-0.134-0.003-0.134-0.003s4.129,1.432,3.255,6.681
	c-0.722,4.332-5.242,4.717-5.242,4.717s3.188,1.278,2.415,5.426c-0.793,4.246-4.559,4.105-6.199,4.254c0,0-41.159,0-42.258,0
	c-1.101,0-2.227-0.556-2.858-1.008c-0.602-0.432-2.246-1.972-2.246-1.972h-3.886v-35.56h6.54c0,0,0.001,0,0.004,0
	c0.068,0,0.983-0.049,3.187-2.555c4.084-4.65,7.251-11.206,10.58-15.383c4.119-5.165,4.735-3.228,9.839-9.644
	c5.104-6.416,5.067-10.229,5.828-14c0.296-1.458,1.694-3.345,3.519-3.345c0.567,0,1.176,0.183,1.806,0.618
	c2.655,1.832,4.364,7.791,3.752,11.915s-3.879,10.312-5.718,12.374c-1.836,2.062-3.02,3.601-2.582,7.228
	c0.347,2.885,4.005,2.904,4.005,2.904l13.276,0.052c0,0,9.539,0.079,9.541,7.988C91.855,55.007,86.742,55.49,86.742,55.49z"/>
</svg>
