<?xml version="1.0" encoding="utf-8"?>
<!-- Generator: Adobe Illustrator 16.2.0, SVG Export Plug-In . SVG Version: 6.00 Build 0)  -->
<!DOCTYPE svg PUBLIC "-//W3C//DTD SVG 1.1//EN" "http://www.w3.org/Graphics/SVG/1.1/DTD/svg11.dtd">
<svg version="1.1" id="Layer_1" xmlns="http://www.w3.org/2000/svg" xmlns:xlink="http://www.w3.org/1999/xlink" x="0px" y="0px"
	 width="100px" height="100px" viewBox="0 0 100 100" enable-background="new 0 0 100 100" xml:space="preserve">
<path fill="#FFFFFF" d="M75.635,43.339V28.357c0-11.74-10.848-21.295-24.176-21.295h-3.577c-13.335,0-24.177,9.555-24.177,21.295
	v14.982h-5.369v48.902h62.658V43.339H75.635z M34.449,28.357c0-6.521,6.034-11.833,13.433-11.833h3.577
	c7.401,0,13.438,5.312,13.438,11.833v14.982H34.449V28.357z M55.801,77.393H43.527l2.809-9.149
	c-2.395-1.085-4.055-3.254-4.055-5.785c0-3.587,3.307-6.494,7.384-6.494c4.084,0,7.388,2.907,7.388,6.494
	c0,2.531-1.648,4.7-4.06,5.785L55.801,77.393z"/>
</svg>
