<?xml version="1.0" encoding="utf-8"?>
<!-- Generator: Adobe Illustrator 16.2.0, SVG Export Plug-In . SVG Version: 6.00 Build 0)  -->
<!DOCTYPE svg PUBLIC "-//W3C//DTD SVG 1.1//EN" "http://www.w3.org/Graphics/SVG/1.1/DTD/svg11.dtd">
<svg version="1.1" id="Layer_1" xmlns="http://www.w3.org/2000/svg" xmlns:xlink="http://www.w3.org/1999/xlink" x="0px" y="0px"
	 width="100px" height="100px" viewBox="0 0 100 100" enable-background="new 0 0 100 100" xml:space="preserve">
<path fill="#FFFFFF" d="M40.323,11.903c-2.912,1.782-6.528,4.079-10.846,6.892c-4.321,2.813-8.406,6.233-12.256,10.264
	c-3.756,3.938-6.951,8.415-9.579,13.428c-2.63,5.014-3.944,10.567-3.944,16.66c0,8.624,1.737,15.585,5.212,20.881
	c3.473,5.296,9.249,7.944,17.326,7.944c5.164,0,9.228-1.713,12.185-5.143c2.959-3.426,4.438-7.112,4.438-11.057
	c0-5.541-1.668-9.743-5.001-12.609c-3.334-2.863-7.913-4.296-13.735-4.296h-6.761c0.563-4.866,1.549-8.843,2.958-11.933
	c1.408-3.089,3.427-6.038,6.058-8.846c2.816-2.993,5.586-5.403,8.311-7.23c2.722-1.825,6.291-4.001,10.706-6.531L40.323,11.903z
	 M92.444,11.903c-2.913,1.782-6.529,4.079-10.848,6.892c-4.32,2.813-8.405,6.233-12.255,10.264c-3.758,3.938-6.95,8.415-9.58,13.428
	c-2.629,5.014-3.944,10.567-3.944,16.66c0,8.624,1.737,15.585,5.213,20.881c3.475,5.296,9.248,7.944,17.327,7.944
	c5.163,0,9.226-1.713,12.186-5.143c2.957-3.426,4.437-7.112,4.437-11.057c0-5.541-1.668-9.743-5.002-12.609
	c-3.333-2.863-7.912-4.296-13.732-4.296h-6.763c0.563-4.866,1.525-8.821,2.889-11.864c1.359-3.042,3.401-6.015,6.127-8.916
	c2.817-2.993,5.586-5.403,8.312-7.23c2.722-1.825,6.29-4.001,10.705-6.531L92.444,11.903z"/>
</svg>
