<?xml version="1.0" encoding="utf-8"?>
<!-- Generator: Adobe Illustrator 16.2.0, SVG Export Plug-In . SVG Version: 6.00 Build 0)  -->
<!DOCTYPE svg PUBLIC "-//W3C//DTD SVG 1.1//EN" "http://www.w3.org/Graphics/SVG/1.1/DTD/svg11.dtd">
<svg version="1.1" id="Layer_1" xmlns="http://www.w3.org/2000/svg" xmlns:xlink="http://www.w3.org/1999/xlink" x="0px" y="0px"
	 width="250px" height="100px" viewBox="0 0 250 100" xml:space="preserve">
<path fill="#FFFFFF" d="M105.109,89.8l2.847-10.372c0,0-9.355,1.22-11.186,0.203c0,0-1.831-0.813-1.017-4.475l5.288-21.558h12.609
	l2.44-9.354h-12.609l2.034-10.169l-16.066,1.22l-2.034,8.745h-8.949l-1.627,9.558h7.729l-6.102,24.405
	c0,0-3.457,12.813,9.559,12.202C88.025,90.206,94.126,90.613,105.109,89.8z"/>
<path fill="#FFFFFF" d="M7.083,74.208c0,0,29.558,10.575,40.946-0.271c0,0,7.051-5.694-2.44-11.931l-18.71-14.373
	c0,0-13.016-8.948-3.797-23.32c0,0,7.864-14.643,41.488-12.474c0,0,14.644,0.542,18.439,1.898l-1.627,13.558
	c0,0-36.878-9.491-38.505,6.779c0,0-1.627,5.152,13.016,13.016l11.389,8.134c0,0,12.203,7.05,3.526,21.965
	c0,0-9.491,16.812-42.844,14.101L6.27,89.393L7.083,74.208z"/>
<path fill="#FFFFFF" d="M172.951,56.646c-4.062-12.268-20.704-17.788-37.168-12.328c-16.465,5.461-26.52,19.834-22.458,32.102
	c4.063,12.268,20.704,17.786,37.168,12.327C166.959,83.287,177.013,68.916,172.951,56.646z M152.555,75.428
	c-6.525,7.031-16.094,8.758-21.372,3.855s-4.269-14.577,2.257-21.608c6.523-7.033,16.095-8.76,21.372-3.857
	C160.089,58.721,159.079,68.395,152.555,75.428z"/>
<path fill="#FFFFFF" d="M210.977,36.249c-2.137-6.455-10.894-9.359-19.557-6.486c-8.662,2.873-13.952,10.436-11.814,16.891
	c2.137,6.455,10.893,9.358,19.555,6.486C207.824,50.267,213.114,42.705,210.977,36.249z M200.245,46.131
	c-3.433,3.7-8.468,4.608-11.245,2.029c-2.776-2.58-2.245-7.67,1.188-11.37c3.432-3.7,8.467-4.609,11.244-2.03
	C204.21,37.34,203.678,42.43,200.245,46.131z"/>
<polygon fill="#FFFFFF" points="240.284,31.093 228.624,31.093 185.509,88.037 197.169,88.037 "/>
<path fill="#FFFFFF" d="M247.088,74.525c-2.137-6.455-10.894-9.359-19.557-6.486c-8.662,2.873-13.952,10.437-11.814,16.891
	c2.137,6.455,10.893,9.358,19.555,6.486C243.936,88.543,249.226,80.98,247.088,74.525z M236.356,84.407
	c-3.433,3.7-8.468,4.608-11.245,2.028c-2.776-2.579-2.245-7.669,1.188-11.369c3.432-3.7,8.467-4.608,11.244-2.03
	C240.321,75.616,239.789,80.707,236.356,84.407z"/>
</svg>
