<?xml version="1.0" encoding="utf-8"?>
<!-- Generator: Adobe Illustrator 16.2.0, SVG Export Plug-In . SVG Version: 6.00 Build 0)  -->
<!DOCTYPE svg PUBLIC "-//W3C//DTD SVG 1.1//EN" "http://www.w3.org/Graphics/SVG/1.1/DTD/svg11.dtd">
<svg version="1.1" id="Layer_1" xmlns="http://www.w3.org/2000/svg" xmlns:xlink="http://www.w3.org/1999/xlink" x="0px" y="0px"
	 width="100px" height="100px" viewBox="0 0 100 100" xml:space="preserve">
<g>
	<g>
		<path fill="#FFFFFF" d="M50.635,74.678c-13.581,0-24.64-11.053-24.64-24.639c0-13.581,11.059-24.633,24.64-24.633
			c13.593,0,24.632,11.052,24.632,24.633C75.268,63.625,64.229,74.678,50.635,74.678L50.635,74.678z M50.635,33.453
			c-9.145,0-16.59,7.448-16.59,16.585c0,9.152,7.446,16.599,16.59,16.599c9.152,0,16.585-7.447,16.585-16.599
			C67.221,40.901,59.787,33.453,50.635,33.453L50.635,33.453z"/>
	</g>
	<g>
		<path fill="#FFFFFF" d="M51.138,18.371c-1.666,0-3.018-1.352-3.018-3.018V7.305c0-1.666,1.352-3.018,3.018-3.018
			c1.666,0,3.024,1.352,3.024,3.018v8.047C54.162,17.019,52.804,18.371,51.138,18.371L51.138,18.371z"/>
	</g>
	<g>
		<path fill="#FFFFFF" d="M33.731,22.76c-1.053,0-2.053-0.542-2.62-1.502l-4.018-6.962c-0.836-1.444-0.347-3.299,1.09-4.123
			c1.457-0.843,3.292-0.346,4.129,1.104l4.022,6.962c0.838,1.438,0.334,3.287-1.103,4.123C34.757,22.636,34.232,22.76,33.731,22.76
			L33.731,22.76z"/>
	</g>
	<g>
		<path fill="#FFFFFF" d="M20.842,35.282c-0.517,0-1.038-0.131-1.515-0.411l-6.957-4.018c-1.444-0.837-1.934-2.678-1.111-4.129
			c0.836-1.437,2.685-1.94,4.122-1.098l6.969,4.019c1.444,0.835,1.928,2.678,1.099,4.128C22.894,34.734,21.88,35.282,20.842,35.282
			L20.842,35.282z"/>
	</g>
	<g>
		<path fill="#FFFFFF" d="M15.937,52.554H7.902c-1.666,0-3.018-1.346-3.018-3.012c0-1.672,1.352-3.017,3.018-3.017h8.035
			c1.672,0,3.024,1.345,3.024,3.017C18.96,51.208,17.608,52.554,15.937,52.554L15.937,52.554z"/>
	</g>
	<g>
		<path fill="#FFFFFF" d="M13.383,73.992c-1.04,0-2.058-0.535-2.619-1.509c-0.838-1.444-0.34-3.286,1.097-4.123l6.977-4.022
			c1.436-0.83,3.278-0.34,4.114,1.104c0.835,1.437,0.34,3.279-1.097,4.122l-6.977,4.023C14.409,73.861,13.898,73.992,13.383,73.992
			L13.383,73.992z"/>
	</g>
	<g>
		<path fill="#FFFFFF" d="M28.831,89.813c-0.515,0-1.032-0.124-1.502-0.392c-1.445-0.85-1.948-2.691-1.112-4.135l4.025-6.957
			c0.834-1.449,2.67-1.94,4.119-1.11c1.439,0.83,1.935,2.678,1.105,4.121l-4.022,6.971C30.889,89.277,29.875,89.813,28.831,89.813
			L28.831,89.813z"/>
	</g>
	<g>
		<path fill="#FFFFFF" d="M50.132,95.783c-1.653,0-3.018-1.346-3.018-3.012V84.73c0-1.672,1.365-3.011,3.018-3.011
			c1.672,0,3.024,1.339,3.024,3.011v8.041C53.156,94.438,51.805,95.783,50.132,95.783L50.132,95.783z"/>
	</g>
	<g>
		<path fill="#FFFFFF" d="M71.571,90.316c-1.045,0-2.058-0.543-2.614-1.51l-4.017-6.963c-0.835-1.444-0.345-3.292,1.098-4.121
			c1.438-0.837,3.286-0.341,4.116,1.096l4.022,6.965c0.837,1.449,0.353,3.292-1.097,4.134
			C72.603,90.185,72.087,90.316,71.571,90.316L71.571,90.316z"/>
	</g>
	<g>
		<path fill="#FFFFFF" d="M87.386,74.86c-0.509,0-1.025-0.138-1.503-0.411l-6.97-4.018c-1.438-0.83-1.935-2.678-1.097-4.121
			c0.822-1.438,2.671-1.935,4.121-1.104l6.964,4.023c1.437,0.837,1.939,2.672,1.109,4.123C89.45,74.313,88.425,74.86,87.386,74.86
			L87.386,74.86z"/>
	</g>
	<g>
		<path fill="#FFFFFF" d="M93.362,53.553h-8.048c-1.652,0-3.005-1.352-3.005-3.011c0-1.671,1.353-3.011,3.005-3.011h8.048
			c1.672,0,3.018,1.339,3.018,3.011C96.38,52.201,95.034,53.553,93.362,53.553L93.362,53.553z"/>
	</g>
	<g>
		<path fill="#FFFFFF" d="M80.931,36.145c-1.05,0-2.057-0.536-2.632-1.509c-0.823-1.45-0.325-3.285,1.124-4.122l6.962-4.023
			c1.452-0.824,3.287-0.328,4.116,1.109c0.836,1.444,0.34,3.287-1.098,4.115l-6.97,4.025C81.957,36.014,81.428,36.145,80.931,36.145
			L80.931,36.145z"/>
	</g>
	<g>
		<path fill="#FFFFFF" d="M68.402,23.263c-0.503,0-1.019-0.129-1.501-0.398c-1.438-0.83-1.934-2.685-1.104-4.123l4.022-6.975
			c0.83-1.438,2.678-1.934,4.122-1.085c1.452,0.823,1.928,2.672,1.104,4.116l-4.024,6.962
			C70.461,22.728,69.447,23.263,68.402,23.263L68.402,23.263z"/>
	</g>
</g>
</svg>
