<?xml version="1.0" encoding="utf-8"?>
<!-- Generator: Adobe Illustrator 16.2.0, SVG Export Plug-In . SVG Version: 6.00 Build 0)  -->
<!DOCTYPE svg PUBLIC "-//W3C//DTD SVG 1.1//EN" "http://www.w3.org/Graphics/SVG/1.1/DTD/svg11.dtd">
<svg version="1.1" id="Layer_1" xmlns="http://www.w3.org/2000/svg" xmlns:xlink="http://www.w3.org/1999/xlink" x="0px" y="0px"
	 width="60px" height="60px" viewBox="0 0 60 60" enable-background="new 0 0 60 60" xml:space="preserve">
<path fill-rule="evenodd" clip-rule="evenodd" fill="#00A4FF" d="M2.159,37.913c0,0,11.075,9.629,19.882,0.082
	c0,0-1.473-0.003-2.417-0.727c-0.862-0.663-1.204-2.056-1.204-2.056s2.74-1.532,1.712-2.689c0,0-6.06-0.122-6.398-3.778l3.559-2.299
	c0,0-1.398,0.677-2.782-0.012c0,0-3.593-2.576-2.907-5.214l3.001-0.307c0,0-5.206-3.7-3.752-6.543c0,0,0.5-2.446,17.726,8.99
	c0,0,3.036-10.806,8.644-13.184c0,0,0.933,0.45,0.933,0.925c0,0,0.797-1.713,1.847-1.871c0,0,1.266,1.117,0.44,1.752
	c0,0,2.138-1.459,3.178-0.717c0,0-0.084,1.296-3.154,2.913c0,0,7.963,0.441,10.742,11.056c0,0,3.452,1.242,6.693-0.842
	c0,0,0.267,1.567-4.765,3.787c0,0,0.469,0.756,4.687,0.182c0,0-0.032,3.138-6.706,3.112c0,0-5.637,16.329-19.333,18.576
	C15.137,51.781,3.444,43.46,2.159,37.913z"/>
</svg>
