<?xml version="1.0" encoding="utf-8"?>
<!-- Generator: Adobe Illustrator 16.2.0, SVG Export Plug-In . SVG Version: 6.00 Build 0)  -->
<!DOCTYPE svg PUBLIC "-//W3C//DTD SVG 1.1//EN" "http://www.w3.org/Graphics/SVG/1.1/DTD/svg11.dtd">
<svg version="1.1" id="Layer_1" xmlns="http://www.w3.org/2000/svg" xmlns:xlink="http://www.w3.org/1999/xlink" x="0px" y="0px"
	 width="100px" height="100px" viewBox="0 0 100 100" xml:space="preserve">
<g>
	<path fill="#FFFFFF" d="M16.534,23.764c4.253,4.237,6.131,9.908,5.663,15.454c5.553-0.454,11.237,1.417,15.447,5.667
		c4.251,4.227,6.11,9.924,5.669,15.44c5.553-0.453,11.214,1.444,15.454,5.671c4.24,4.224,6.108,9.921,5.658,15.438
		c5.543-0.44,11.204,1.431,15.464,5.671c1.79,1.804,3.152,3.868,4.115,6.053c16.85-20.517,15.712-50.873-3.456-70.041
		C61.354,3.933,30.99,2.793,10.46,19.648C12.662,20.599,14.746,21.974,16.534,23.764z"/>
	<g>
		<path fill="#FFFFFF" d="M15.874,89.941c-3.33,0-6.427-1.294-8.766-3.649c-2.354-2.325-3.632-5.436-3.632-8.751
			s1.279-6.441,3.632-8.768c1.816-1.842,4.83-1.829,6.639,0c1.852,1.833,1.852,4.818,0,6.647c-0.57,0.565-0.887,1.323-0.887,2.12
			s0.317,1.555,0.887,2.104c1.15,1.156,3.144,1.156,4.247,0l62.708-62.707c1.829-1.83,4.817-1.83,6.647,0
			c1.842,1.845,1.842,4.818,0,6.647L24.64,86.306C22.314,88.647,19.164,89.941,15.874,89.941L15.874,89.941z"/>
	</g>
</g>
</svg>
