<?xml version="1.0" encoding="utf-8"?>
<!-- Generator: Adobe Illustrator 16.2.0, SVG Export Plug-In . SVG Version: 6.00 Build 0)  -->
<!DOCTYPE svg PUBLIC "-//W3C//DTD SVG 1.1//EN" "http://www.w3.org/Graphics/SVG/1.1/DTD/svg11.dtd">
<svg version="1.1" id="Layer_1" xmlns="http://www.w3.org/2000/svg" xmlns:xlink="http://www.w3.org/1999/xlink" x="0px" y="0px"
	 width="100px" height="100px" viewBox="0 0 100 100" enable-background="new 0 0 100 100" xml:space="preserve">
<path fill="#FFFFFF" d="M89.253,67.803c-8.808-4.2-18.24-6.847-27.844-7.997c0.315-2.27,0.64-4.558,0.971-6.849
	c2.129-1.361,3.659-3.372,3.793-5.036c0.255-2.134,0.495-4.246,0.746-6.367c0.301,0.312,0.704,0.535,1.15,0.581
	c1.017,0.101,1.923-0.638,2.021-1.653l1.006-9.773c0.125-1.028-0.625-1.912-1.623-2.013c-0.388-0.044-0.772,0.034-1.097,0.213
	c0.229-1.875,0.453-3.721,0.655-5.596c0.179-2.536,1.439-9.337-3.469-13.716c-7.099-6.971-22.749-6.971-29.828,0
	c-4.916,4.379-3.66,11.18-3.48,13.716c0.213,1.875,0.43,3.72,0.644,5.596c-0.309-0.179-0.682-0.257-1.078-0.213
	c-1.001,0.101-1.759,0.984-1.653,2.013l1.021,9.773c0.099,1.015,1.017,1.754,2.022,1.653c0.446-0.046,0.865-0.269,1.158-0.581
	c0.244,2.121,0.491,4.232,0.724,6.367c0.152,1.664,1.683,3.674,3.838,5.036c0.313,2.291,0.632,4.572,0.948,6.849
	c-9.596,1.15-19.043,3.797-27.855,7.997c-2.848,1.497-4.848,5.351-4.546,8.344c0.323,3.449,0.685,6.881,1.04,10.319
	c0.305,2.993,2.867,5.967,5.704,6.5c24.162,3.877,48.677,3.877,72.828,0c2.859-0.533,5.419-3.507,5.735-6.5
	c0.346-3.438,0.682-6.87,1.017-10.319C94.089,73.153,92.108,69.3,89.253,67.803z"/>
</svg>
