<?xml version="1.0" encoding="utf-8"?>
<!-- Generator: Adobe Illustrator 16.2.0, SVG Export Plug-In . SVG Version: 6.00 Build 0)  -->
<!DOCTYPE svg PUBLIC "-//W3C//DTD SVG 1.1//EN" "http://www.w3.org/Graphics/SVG/1.1/DTD/svg11.dtd">
<svg version="1.1" id="Layer_1" xmlns="http://www.w3.org/2000/svg" xmlns:xlink="http://www.w3.org/1999/xlink" x="0px" y="0px"
	 width="100px" height="100px" viewBox="0 0 100 100" xml:space="preserve">
<path fill="#FFFFFF" d="M96.959,24.82c0.313-1.466-0.631-2.897-2.086-3.195L36.111,9.317c-0.702-0.147-1.436-0.012-2.045,0.387
	c-0.41,0.263-0.671,0.658-0.894,1.095L12.525,31.247c-0.422-2.054-2.225-3.567-4.418-3.567c-2.492,0-4.505,2.024-4.505,4.523v54.38
	c0,2.511,2.014,4.526,4.505,4.526c2.517,0,4.542-2.016,4.542-4.526V44.061l20.97,20.77c0.497,0.499,1.18,0.771,1.876,0.771
	c0.336,0,0.696-0.063,1.039-0.198c0.18-0.073,0.31-0.186,0.478-0.286l57.861-12.118c1.455-0.298,2.399-1.729,2.086-3.195
	C95.222,41.526,95.222,33.111,96.959,24.82z M37.658,15.148l9.589,2.015c-2.441,13.337-2.46,26.972,0,40.309l-9.589,2
	C34.925,44.742,34.925,29.877,37.658,15.148z M59.101,19.647l10.33,2.163c-1.836,10.256-1.842,20.757,0,31.014l-10.345,2.163
	C56.999,43.302,56.999,31.332,59.101,19.647z M31.456,20.069c-1.641,11.685-1.604,23.446,0.068,35.142l-17.78-17.615L31.456,20.069z
	 M91.182,48.262l-9.92,2.075c-1.492-8.613-1.472-17.426,0.03-26.039l9.89,2.063C89.937,33.645,89.937,40.978,91.182,48.262z"/>
</svg>
