<?xml version="1.0" encoding="utf-8"?>
<!-- Generator: Adobe Illustrator 16.2.0, SVG Export Plug-In . SVG Version: 6.00 Build 0)  -->
<!DOCTYPE svg PUBLIC "-//W3C//DTD SVG 1.1//EN" "http://www.w3.org/Graphics/SVG/1.1/DTD/svg11.dtd">
<svg version="1.1" id="Layer_1" xmlns="http://www.w3.org/2000/svg" xmlns:xlink="http://www.w3.org/1999/xlink" x="0px" y="0px"
	 width="60px" height="60px" viewBox="0 0 60 60" enable-background="new 0 0 60 60" xml:space="preserve">
<g>
	<g>
		<path fill="#00A4FF" d="M47.181,41.658c-0.08-0.218-0.241-0.327-0.487-0.327c-0.306,0-0.491,0.094-0.563,0.278
			c-0.072,0.183-0.107-0.329-0.107,0.48v1.051h1.276V42.09C47.299,41.347,47.261,41.875,47.181,41.658z M19.829,19.385
			c0,1.665,0.107,2.912,0.324,3.743c0.217,0.833,0.579,1.543,1.085,2.128c0.508,0.586,1.22,1.024,2.135,1.313
			c0.916,0.291,2.789,0.436,4.108,0.436c1.182,0,1.725-0.169,2.635-0.509c0.911-0.338,1.658-0.866,2.238-1.579
			c0.58-0.716,0.961-1.482,1.138-2.305c0.177-0.82,0.266-2.115,0.266-3.876v-4.801c0-1.389-0.097-2.423-0.287-3.103
			c-0.192-0.68-0.551-1.339-1.072-1.979c-0.522-0.642-1.263-1.159-2.223-1.559c-0.96-0.399-1.606-0.598-2.945-0.598
			c-1.595,0-3.662,0.308-4.685,0.929c-1.024,0.623-1.734,1.446-2.127,2.467c-0.394,1.024-0.591,2.448-0.591,4.271V19.385z
			 M25.796,12.71c0-1.005,0.059-1.638,0.177-1.898c0.118-0.263,0.354-0.393,0.709-0.393c0.355,0,0.837,0.13,0.946,0.393
			c0.108,0.26,0.162,0.893,0.162,1.898v8.031c0,0.846-0.057,1.398-0.169,1.655c-0.114,0.254-0.599,0.382-0.955,0.382
			c-0.344,0-0.576-0.14-0.694-0.421c-0.118-0.279-0.177-0.882-0.177-1.81V12.71z M36.515,25.278
			c0.281,0.521,0.716,0.942,1.306,1.256c0.592,0.314,1.587,0.221,2.482,0.221c0.788,0,1.484,0.086,2.091-0.245
			c0.605-0.33,1.115-0.826,1.527-1.488l-0.102,1.63h6.071V6.673h-5.97V20.24c0,1.605-0.04,2.557-0.123,2.852
			c-0.086,0.298-0.349,0.445-0.791,0.445c-0.415,0-0.919-0.145-1.011-0.431c-0.096-0.285-0.142-1.191-0.142-2.717V6.673h-5.97
			v13.599c0,1.684,0.037,2.807,0.104,3.376C36.059,24.212,36.233,24.757,36.515,25.278z M35.565,41.674
			c-0.094-0.228-0.782-0.343-1.056-0.343c-0.269,0-0.442,0.102-0.521,0.3c-0.08,0.196-0.12-0.311-0.12,0.491v6.701
			c0,0.772,0.045,1.266,0.137,1.482c0.088,0.217,0.268,0.327,0.536,0.327c0.273,0,0.957-0.112,1.04-0.338
			c0.083-0.225,0.126-0.761,0.126-1.613v-6.56C35.708,41.379,35.659,41.902,35.565,41.674z M9.581,26.652h5.887v-8.656l4.409-15.51
			l-5.713,0.126c-0.809,4.485-1.387,7.755-1.731,10.306c-0.114-1.615-0.618-5.636-1.511-10.306H5.208l4.372,15.384V26.652z
			 M47.99,30.833H11.688c-5.569,0-10.083,4.515-10.083,10.083v6.051c0,5.57,4.514,10.084,10.083,10.084H47.99
			c5.567,0,10.082-4.514,10.082-10.084v-6.051C58.072,35.348,53.558,30.833,47.99,30.833z M15.607,38.763h-1.826v14.154H9.726
			V38.763H7.659v-3.887h7.948V38.763z M27.797,52.917h-4.452l0.076-1.193c-0.303,0.482-0.677,0.848-1.122,1.091
			c-0.444,0.241-0.955,0.362-1.532,0.362c-0.657,0-1.202-0.115-1.635-0.346c-0.434-0.233-0.753-0.539-0.959-0.922
			c-0.205-0.381-0.334-0.78-0.383-1.196c-0.051-0.415-0.077-1.241-0.077-2.474v-9.444h3.998v9.53c0,1.117,0.034,1.782,0.104,1.994
			c0.068,0.206,0.631,0.313,0.936,0.313c0.324,0,0.771-0.11,0.831-0.327c0.062-0.217,0.092-0.914,0.092-2.091v-9.294h4.124V52.917z
			 M40.082,48.909c0,1.054-0.069,1.839-0.211,2.356c-0.143,0.515-0.47,0.962-0.989,1.34c-0.521,0.381-1.14,0.571-1.855,0.571
			c-0.512,0-0.991-0.112-1.434-0.335c-0.442-0.226-1.354-0.563-1.724-1.011l-0.279,1.086h-3.718V34.876h3.997v5.157
			c0.361-0.418,1.271-0.729,1.713-0.938c0.442-0.204,0.925-0.309,1.444-0.309c0.601,0,1.121,0.094,1.561,0.281
			c0.442,0.188,0.777,0.45,1.008,0.791s0.37,0.673,0.418,0.994c0.048,0.33,0.069,0.011,0.069,1.072V48.909z M51.687,44.977h-5.664
			v4.115c0,0.651,0.046,1.069,0.14,1.257s0.273,0.284,0.542,0.284c0.332,0,0.552-0.126,0.664-0.375
			c0.113-0.25,0.172-0.732,0.172-1.448v-1.893h4.146v1.062c0,0.888-0.056,1.568-0.169,2.046c-0.112,0.478-0.372,0.986-0.782,1.528
			c-0.413,0.541-0.936,0.946-1.565,1.22c-0.633,0.268-1.426,0.404-2.381,0.404c-0.922,0-1.487-0.134-2.195-0.402
			c-0.707-0.265-1.383-0.633-1.777-1.099c-0.394-0.464-0.664-0.979-0.817-1.536c-0.152-0.561-0.228-1.375-0.228-2.442v-4.696
			c0-1.257,0.169-1.241,0.509-1.965c0.338-0.727,1.021-1.281,1.794-1.67c0.774-0.386,1.407-0.579,2.415-0.579
			c1.225,0,2.238,0.23,3.037,0.699c0.796,0.467,1.356,1.083,1.678,1.853c0.322,0.767,0.482,1.346,0.482,2.74V44.977z"/>
	</g>
</g>
</svg>
